# xmcd
#
# Track frame offsets:
#	182
#	18062
#	34267
#	51077
#	68495
#	87807
#	106387
#	122415
#	139762
#	158825
#	175010
#	193170
#	212730
#	230095
#
# Disc length: 3290 seconds
# Revision: 0
# Processed by: cddbd v1.5.2PL0 Copyright (c) Steve Scherf et al.
# Submitted via: dBpowerAMP V12.0
#
DISCID=b40cd80e
DTITLE=Oliver Frank - Rendezvous im Paradies
DYEAR=1993
DGENRE=Discofox
TTITLE0=Santa Barbara
TTITLE1=Abschied von Fernando
TTITLE2=Ich träum' schon mit offenen Augen von dir
TTITLE3=Palermo bei Nacht
TTITLE4=Im Hafen von Piräus
TTITLE5=1000 und 1 Nacht
TTITLE6=Rendezvous im Paradies
TTITLE7=Bambolero
TTITLE8=Montego Bay
TTITLE9=Zum Frühstück nach Paris
TTITLE10=SOS am Strand von Griechenland (Original 7" Version)
TTITLE11=Katharina
TTITLE12=Mit dir
TTITLE13=Angelina
EXTD=
EXTT0=
EXTT1=
EXTT2=
EXTT3=
EXTT4=
EXTT5=
EXTT6=
EXTT7=
EXTT8=
EXTT9=
EXTT10=
EXTT11=
EXTT12=
EXTT13=
PLAYORDER=
